<?xml version="1.0" encoding="UTF-8" standalone="no"?><svg xmlns="http://www.w3.org/2000/svg" xmlns:xlink="http://www.w3.org/1999/xlink" contentScriptType="application/ecmascript" contentStyleType="text/css" height="335.4167px" preserveAspectRatio="none" style="width:822px;height:335px;background:#FFFFFF;" version="1.1" viewBox="0 0 822 335" width="822.9167px" zoomAndPan="magnify"><defs/><g><rect fill="#FFFFFF" height="47.4528" rx="4.1667" ry="4.1667" style="stroke:#BABDBF;stroke-width:1.0416666666666667;" width="247.9167" x="283.0729" y="20.8333"/><text fill="#2FA4E7" font-family="&quot;Verdana&quot;" font-size="20.8333" font-weight="bold" lengthAdjust="spacing" textLength="225" x="294.5313" y="52.4333">pyTorch BERT model</text><!--MD5=[237ba558d08faa138de965e69c6389ac]
class BERT--><rect codeLine="8" height="98.818" id="BERT" rx="4.1667" ry="4.1667" style="stroke:#2FA4E7;stroke-width:1.0416666666666667;fill:none;" width="183.3333" x="227.0833" y="224.5361"/><ellipse cx="295.8333" cy="241.7002" fill="#EDF0F2" rx="10.4167" ry="10.4167" style="stroke:#BABDBF;stroke-width:1.0416666666666667;"/><path d="M297.7437,246.1253 Q297.3165,246.345 296.8465,246.4549 Q296.3765,246.5647 295.8577,246.5647 Q294.0145,246.5647 293.044,245.3501 Q292.0736,244.1355 292.0736,241.8406 Q292.0736,239.5396 293.044,238.325 Q294.0145,237.1104 295.8577,237.1104 Q296.3765,237.1104 296.8526,237.2203 Q297.3287,237.3301 297.7437,237.5498 L297.7437,239.5518 Q297.2799,239.1246 296.8435,238.9262 Q296.4071,238.7278 295.9432,238.7278 Q294.9544,238.7278 294.4509,239.5121 Q293.9473,240.2964 293.9473,241.8406 Q293.9473,243.3787 294.4509,244.163 Q294.9544,244.9473 295.9432,244.9473 Q296.4071,244.9473 296.8435,244.7489 Q297.2799,244.5506 297.7437,244.1233 Z " fill="#000000"/><text fill="#343A40" font-family="&quot;Verdana&quot;" font-size="11.4583" lengthAdjust="spacing" textLength="27.0833" x="320.8333" y="246.0307">BERT</text><line style="stroke:#2FA4E7;stroke-width:1.5625;" x1="228.125" x2="409.375" y1="258.8643" y2="258.8643"/><text fill="#343A40" font-family="&quot;Verdana&quot;" font-size="11.4583" lengthAdjust="spacing" textLength="160.4167" x="238.5417" y="279.3172">The main class of our model.</text><text fill="#343A40" font-family="&quot;Verdana&quot;" font-size="11.4583" lengthAdjust="spacing" textLength="152.0833" x="238.5417" y="303.2288">It unites all the sub-models</text><line style="stroke:#2FA4E7;stroke-width:1.0416666666666667;stroke-dasharray:1.0,2.0;" x1="228.125" x2="409.375" y1="315.0208" y2="315.0208"/><!--MD5=[fbf56e476b2db8099687329a0aa02670]
class JointEmbedding--><rect codeLine="14" height="98.818" id="JointEmbedding" rx="4.1667" ry="4.1667" style="stroke:#2FA4E7;stroke-width:1.0416666666666667;fill:none;" width="172.9167" x="17.7083" y="224.5361"/><ellipse cx="51.9792" cy="241.7002" fill="#EDF0F2" rx="10.4167" ry="10.4167" style="stroke:#BABDBF;stroke-width:1.0416666666666667;"/><path d="M53.8896,246.1253 Q53.4623,246.345 52.9924,246.4549 Q52.5224,246.5647 52.0036,246.5647 Q50.1603,246.5647 49.1899,245.3501 Q48.2194,244.1355 48.2194,241.8406 Q48.2194,239.5396 49.1899,238.325 Q50.1603,237.1104 52.0036,237.1104 Q52.5224,237.1104 52.9985,237.2203 Q53.4745,237.3301 53.8896,237.5498 L53.8896,239.5518 Q53.4257,239.1246 52.9893,238.9262 Q52.5529,238.7278 52.089,238.7278 Q51.1003,238.7278 50.5967,239.5121 Q50.0932,240.2964 50.0932,241.8406 Q50.0932,243.3787 50.5967,244.163 Q51.1003,244.9473 52.089,244.9473 Q52.5529,244.9473 52.9893,244.7489 Q53.4257,244.5506 53.8896,244.1233 Z " fill="#000000"/><text fill="#343A40" font-family="&quot;Verdana&quot;" font-size="11.4583" lengthAdjust="spacing" textLength="87.5" x="75.1042" y="246.0307">JointEmbedding</text><line style="stroke:#2FA4E7;stroke-width:1.5625;" x1="18.75" x2="189.5833" y1="258.8643" y2="258.8643"/><text fill="#343A40" font-family="&quot;Verdana&quot;" font-size="11.4583" lengthAdjust="spacing" textLength="150" x="29.1667" y="279.3172">Container for embeddings.</text><text fill="#343A40" font-family="&quot;Verdana&quot;" font-size="11.4583" lengthAdjust="spacing" textLength="148.9583" x="29.1667" y="303.2288">The first layer in the model</text><line style="stroke:#2FA4E7;stroke-width:1.0416666666666667;stroke-dasharray:1.0,2.0;" x1="18.75" x2="189.5833" y1="315.0208" y2="315.0208"/><!--MD5=[c89bce1751c4b5ecd004b0f05df73a1b]
class AttentionHead--><rect codeLine="20" height="74.9064" id="AttentionHead" rx="4.1667" ry="4.1667" style="stroke:#2FA4E7;stroke-width:1.0416666666666667;fill:none;" width="121.875" x="689.0625" y="87.0361"/><ellipse cx="703.6458" cy="104.2002" fill="#EDF0F2" rx="10.4167" ry="10.4167" style="stroke:#BABDBF;stroke-width:1.0416666666666667;"/><path d="M705.5562,108.6253 Q705.129,108.845 704.659,108.9549 Q704.189,109.0647 703.6702,109.0647 Q701.827,109.0647 700.8565,107.8501 Q699.8861,106.6355 699.8861,104.3406 Q699.8861,102.0396 700.8565,100.825 Q701.827,99.6104 703.6702,99.6104 Q704.189,99.6104 704.6651,99.7203 Q705.1412,99.8301 705.5562,100.0498 L705.5562,102.0518 Q705.0924,101.6246 704.656,101.4262 Q704.2196,101.2278 703.7557,101.2278 Q702.7669,101.2278 702.2634,102.0121 Q701.7598,102.7964 701.7598,104.3406 Q701.7598,105.8787 702.2634,106.663 Q702.7669,107.4473 703.7557,107.4473 Q704.2196,107.4473 704.656,107.2489 Q705.0924,107.0506 705.5562,106.6233 Z " fill="#000000"/><text fill="#343A40" font-family="&quot;Verdana&quot;" font-size="11.4583" lengthAdjust="spacing" textLength="80.2083" x="722.3958" y="108.5307">AttentionHead</text><line style="stroke:#2FA4E7;stroke-width:1.5625;" x1="690.1042" x2="809.8958" y1="121.3643" y2="121.3643"/><text fill="#343A40" font-family="&quot;Verdana&quot;" font-size="11.4583" lengthAdjust="spacing" textLength="89.5833" x="700.5208" y="141.8172">Attention model</text><line style="stroke:#2FA4E7;stroke-width:1.0416666666666667;stroke-dasharray:1.0,2.0;" x1="690.1042" x2="809.8958" y1="153.6092" y2="153.6092"/><!--MD5=[be737e263ef2209458fc7eb05fd7cddd]
class MultiHeadAttention--><rect codeLine="25" height="74.9064" id="MultiHeadAttention" rx="4.1667" ry="4.1667" style="stroke:#2FA4E7;stroke-width:1.0416666666666667;fill:none;" width="187.5" x="464.5833" y="87.0361"/><ellipse cx="496.5104" cy="104.2002" fill="#EDF0F2" rx="10.4167" ry="10.4167" style="stroke:#BABDBF;stroke-width:1.0416666666666667;"/><path d="M498.4208,108.6253 Q497.9936,108.845 497.5236,108.9549 Q497.0536,109.0647 496.5348,109.0647 Q494.6916,109.0647 493.7211,107.8501 Q492.7507,106.6355 492.7507,104.3406 Q492.7507,102.0396 493.7211,100.825 Q494.6916,99.6104 496.5348,99.6104 Q497.0536,99.6104 497.5297,99.7203 Q498.0058,99.8301 498.4208,100.0498 L498.4208,102.0518 Q497.9569,101.6246 497.5205,101.4262 Q497.0841,101.2278 496.6203,101.2278 Q495.6315,101.2278 495.128,102.0121 Q494.6244,102.7964 494.6244,104.3406 Q494.6244,105.8787 495.128,106.663 Q495.6315,107.4473 496.6203,107.4473 Q497.0841,107.4473 497.5205,107.2489 Q497.9569,107.0506 498.4208,106.6233 Z " fill="#000000"/><text fill="#343A40" font-family="&quot;Verdana&quot;" font-size="11.4583" lengthAdjust="spacing" textLength="107.2917" x="519.1146" y="108.5307">MultiHeadAttention</text><line style="stroke:#2FA4E7;stroke-width:1.5625;" x1="465.625" x2="651.0417" y1="121.3643" y2="121.3643"/><text fill="#343A40" font-family="&quot;Verdana&quot;" font-size="11.4583" lengthAdjust="spacing" textLength="164.5833" x="476.0417" y="141.8172">Container for attention heads</text><line style="stroke:#2FA4E7;stroke-width:1.0416666666666667;stroke-dasharray:1.0,2.0;" x1="465.625" x2="651.0417" y1="153.6092" y2="153.6092"/><!--MD5=[a6c6c764ef525f81bbc9f42f79e225a1]
class Encoder--><rect codeLine="30" height="98.818" id="Encoder" rx="4.1667" ry="4.1667" style="stroke:#2FA4E7;stroke-width:1.0416666666666667;fill:none;" width="221.875" x="447.3958" y="224.5361"/><ellipse cx="526.0417" cy="241.7002" fill="#EDF0F2" rx="10.4167" ry="10.4167" style="stroke:#BABDBF;stroke-width:1.0416666666666667;"/><path d="M527.9521,246.1253 Q527.5248,246.345 527.0549,246.4549 Q526.5849,246.5647 526.0661,246.5647 Q524.2228,246.5647 523.2524,245.3501 Q522.2819,244.1355 522.2819,241.8406 Q522.2819,239.5396 523.2524,238.325 Q524.2228,237.1104 526.0661,237.1104 Q526.5849,237.1104 527.061,237.2203 Q527.537,237.3301 527.9521,237.5498 L527.9521,239.5518 Q527.4882,239.1246 527.0518,238.9262 Q526.6154,238.7278 526.1515,238.7278 Q525.1628,238.7278 524.6592,239.5121 Q524.1557,240.2964 524.1557,241.8406 Q524.1557,243.3787 524.6592,244.163 Q525.1628,244.9473 526.1515,244.9473 Q526.6154,244.9473 527.0518,244.7489 Q527.4882,244.5506 527.9521,244.1233 Z " fill="#000000"/><text fill="#343A40" font-family="&quot;Verdana&quot;" font-size="11.4583" lengthAdjust="spacing" textLength="45.8333" x="551.0417" y="246.0307">Encoder</text><line style="stroke:#2FA4E7;stroke-width:1.5625;" x1="448.4375" x2="668.2292" y1="258.8643" y2="258.8643"/><text fill="#343A40" font-family="&quot;Verdana&quot;" font-size="11.4583" lengthAdjust="spacing" textLength="198.9583" x="458.8542" y="279.3172">Pass embeddings through attention</text><text fill="#343A40" font-family="&quot;Verdana&quot;" font-size="11.4583" lengthAdjust="spacing" textLength="184.375" x="458.8542" y="303.2288">and feed-forward neural network</text><line style="stroke:#2FA4E7;stroke-width:1.0416666666666667;stroke-dasharray:1.0,2.0;" x1="448.4375" x2="668.2292" y1="315.0208" y2="315.0208"/><!--MD5=[605f299657df16489aa0a5cec6d987bf]
link JointEmbedding to BERT--><path codeLine="36" d="M190.9271,274.0153 C198.3229,274.0153 205.7188,274.0153 213.1146,274.0153 " fill="none" id="JointEmbedding-to-BERT" style="stroke:#2FA4E7;stroke-width:3.125;"/><polygon fill="#2FA4E7" points="226.875,274.0153,220.625,269.8486,214.375,274.0153,220.625,278.182,226.875,274.0153" style="stroke:#2FA4E7;stroke-width:3.125;"/><!--MD5=[23ce1596a85ff10e5089f6e09f7f2616]
reverse link BERT to Encoder--><path codeLine="37" d="M424.2188,274.0153 C431.8646,274.0153 439.5,274.0153 447.1458,274.0153 " fill="none" id="BERT-backto-Encoder" style="stroke:#2FA4E7;stroke-width:3.125;"/><polygon fill="#2FA4E7" points="410.4688,274.0153,416.7188,278.182,422.9688,274.0153,416.7188,269.8486,410.4688,274.0153" style="stroke:#2FA4E7;stroke-width:3.125;"/><!--MD5=[9bf1d59479151406c0c8c4e3b751f74c]
reverse link MultiHeadAttention to AttentionHead--><path codeLine="38" d="M666.0313,124.5361 C673.6667,124.5361 681.3021,124.5361 688.9375,124.5361 " fill="none" id="MultiHeadAttention-backto-AttentionHead" style="stroke:#2FA4E7;stroke-width:3.125;"/><polygon fill="#2FA4E7" points="652.2917,124.5361,658.5417,128.7028,664.7917,124.5361,658.5417,120.3695,652.2917,124.5361" style="stroke:#2FA4E7;stroke-width:3.125;"/><!--MD5=[8461b4cacc4e8830453778f65dec0a37]
link MultiHeadAttention to Encoder--><path codeLine="39" d="M558.3333,162.3903 C558.3333,177.0465 558.3333,194.3278 558.3333,210.8174 " fill="none" id="MultiHeadAttention-to-Encoder" style="stroke:#2FA4E7;stroke-width:3.125;"/><polygon fill="#2FA4E7" points="558.3333,224.4007,562.5,218.1507,558.3333,211.9007,554.1667,218.1507,558.3333,224.4007" style="stroke:#2FA4E7;stroke-width:3.125;"/><!--MD5=[256732418d2e15d9b29fde85eb7dcb62]
@startuml

!theme cerulean-outline

skinparam backgroundColor white

title "pyTorch BERT model"

class BERT {
    The main class of our model.
    It unites all the sub-models
    ..
}

class JointEmbedding {
    Container for embeddings.
    The first layer in the model
    ..
}

class AttentionHead {
    Attention model
    ..
}

class MultiHeadAttention {
    Container for attention heads
    ..
}

class Encoder {
    Pass embeddings through attention
    and feed-forward neural network
    ..
}

JointEmbedding -* BERT
Encoder -left-* BERT
AttentionHead -left-* MultiHeadAttention
MultiHeadAttention - -* Encoder

@enduml

@startuml




skinparam backgroundColor transparent
skinparam useBetaStyle false






<style>
  root {
    BackgroundColor transparent
    FontColor #2FA4E7
    HyperLinkColor #FD7E14
    LineColor #2683B9
    LineThickness 1
    Margin 10
    Padding 6
    Shadowing 0.0
  }
  node {
   Padding 15
   roundcorner 20
   BackgroundColor transparent
  }
  caption {
    LineThickness 0
  }
  footer {
    LineThickness 0
  }
  groupHeader {
    BackgroundColor #E9ECEF
    FontColor #033C73
    FontStyle bold
  }
  header {
    LineThickness 0
  }
  referenceHeader {
    BackgroundColor transparent
    FontColor #343A40
    FontStyle bold
  }
  separator {
    BackgroundColor #343A40
    FontColor transparent
    FontStyle bold
  }
  title {
	FontSize 20
	BorderRoundCorner            8
	BorderThickness 	         1
	BackgroundColor  transparent
	FontColor #2FA4E7
	BorderColor #E9ECEF
  }
  nwdiagDiagram {
	network {
			FontColor #2FA4E7
	BorderColor #2FA4E7
	BackgroundColor transparent    
		LineColor #2FA4E7
		LineThickness 1.0
		FontColor #2683B9
	}
	server {
			FontColor #2FA4E7
	BorderColor #2FA4E7
	BackgroundColor transparent
	}
	arrow {
		FontColor #2683B9
		LineColor #2683B9
	}
	group {
		BackGroundColor #F8F9FA
		LineColor $LIGHT_DARK
		LineThickness 2.0
		Margin 5
		Padding 5
	}
  }
  ganttDiagram {
	task {
			FontColor #2FA4E7
	BorderColor #2FA4E7
	BackgroundColor transparent
		LineColor #2FA4E7
		Margin 10
		Padding 6
	}
	note {
		FontColor #033C73
		LineColor $INFO_DARK
		BackGroundColor transparent
	}
	separator {
		LineColor #BABDBF
		BackGroundColor transparent
		FontColor #BABDBF
	}
	milestone {
		FontColor #033C73
		FontSize 16
		FontStyle italic
		BackGroundColor #E9ECEF
		LineColor #BABDBF
	}
	timeline {
		BackgroundColor #E9ECEF
		FontColor #BABDBF
	}
	closed {
		BackgroundColor $WARNING_DARK
		FontColor #DD5600
	}
  }
</style>
skinparam defaultFontName       "Verdana"
skinparam defaultFontSize       12
skinparam dpi                   100
skinparam shadowing             false
skinparam roundcorner           8
skinparam ParticipantPadding    40
skinparam BoxPadding            40
skinparam Padding               5
skinparam ArrowColor            #868E96
skinparam stereotype {
    CBackgroundColor #EDF0F2
    CBorderColor #BABDBF
    ABackgroundColor #8FB961
    ABorderColor $SUCCESS_DARK
    IBackgroundColor #D2494E
    IBorderColor $DANGER_DARK
    EBackgroundColor #E47833
    EBorderColor $WARNING_DARK
    NBackgroundColor #35638F
    NBorderColor $INFO_DARK
}
skinparam title {
	FontColor	                 #2FA4E7
	BorderColor	                 #BABDBF
	FontSize	    	         20
	BorderRoundCorner            8
	BorderThickness 	         1
	BackgroundColor              transparent
}

skinparam legend {
	BackgroundColor transparent
	BorderColor #BABDBF
	FontColor #343A40
}

skinparam swimlane {
	BorderColor #033C73
	BorderThickness 2
	TitleBackgroundColor  #EDF0F2-#E9ECEF
	TitleFontColor #2FA4E7
}


skinparam activity {
		FontColor #2FA4E7
	BorderColor #2FA4E7
	BackgroundColor transparent
	BarColor #73A839
	StartColor #033C73
	EndColor #033C73
	DiamondBackgroundColor transparent
  	DiamondBorderColor #BABDBF
	DiamondFontColor #BABDBF
}


skinparam participant {
		FontColor #2FA4E7
	BorderColor #2FA4E7
	BackgroundColor transparent
	ParticipantBorderThickness 2
}


skinparam actor {
		FontColor #2FA4E7
	BorderColor #2FA4E7
	BackgroundColor transparent
}


skinparam arrow {
	Thickness 3
	Color #2FA4E7
	FontColor #343A40
}


skinparam sequence {
	BorderColor #2FA4E7
	TitleFontColor #2FA4E7
	BackgroundColor transparent
	StartColor #2FA4E7
	EndColor #2FA4E7
	BoxBackgroundColor transparent
	BoxBorderColor #868E96
	BoxFontColor #343A40
	DelayFontColor #343A40
	LifeLineBorderColor #BABDBF
	LifeLineBorderThickness 2
	LifeLineBackgroundColor transparent
	GroupBorderColor #868E96
	GroupFontColor #343A40
	GroupHeaderFontColor #033C73
	DividerBackgroundColor transparent
    DividerBorderColor #868E96
    DividerBorderThickness 2
    DividerFontColor #343A40
	ReferenceBackgroundColor transparent
	ReferenceBorderColor #868E96
	ReferenceFontColor #343A40
	ReferenceHeaderFontColor #033C73
	StereotypeFontColor #2FA4E7
}


skinparam partition {
	BorderColor #2FA4E7
	FontColor #2FA4E7
	BackgroundColor transparent
}


skinparam collections {
		FontColor #2FA4E7
	BorderColor #2FA4E7
	BackgroundColor transparent
}


skinparam control {
		FontColor #2FA4E7
	BorderColor #2FA4E7
	BackgroundColor transparent
}


skinparam entity {
		FontColor #2FA4E7
	BorderColor #2FA4E7
	BackgroundColor transparent
}


skinparam boundary {
		FontColor #2FA4E7
	BorderColor #2FA4E7
	BackgroundColor transparent
}


skinparam agent {
	BackgroundColor transparent
	BorderColor #999999
	FontColor #333333
}


skinparam note {
	BorderThickness 1
	BackgroundColor transparent
	BorderColor #033C73
	FontColor #033C73
}


skinparam artifact {
	BackgroundColor transparent
	BorderColor #868E96
	FontColor #868E96
}


skinparam component {
		FontColor #2FA4E7
	BorderColor #2FA4E7
	BackgroundColor transparent
}


skinparam interface {
	BackgroundColor  transparent
	BorderColor  #C71C22
	FontColor #343A40
}


skinparam storage {
	BackgroundColor transparent
  	BorderColor #DD5600
	FontColor #DD5600
}


skinparam node {
	BackgroundColor transparent
	BorderColor #343A40
	FontColor #343A40
}


skinparam cloud {
	BackgroundColor #F2FCFE-#eeeeee
	BorderColor #F2FCFE
	FontColor #343A40
}


skinparam database {
		FontColor #2FA4E7
	BorderColor #2FA4E7
	BackgroundColor transparent
}


skinparam class {
		FontColor #2FA4E7
	BorderColor #2FA4E7
	BackgroundColor transparent
	FontColor #F8F9FA
	HeaderBackgroundColor #2FA4E7-#2683B9
	StereotypeFontColor #343A40
	BorderThickness 1
	AttributeFontColor #343A40
	AttributeFontSize 11
}


skinparam object {
		FontColor #2FA4E7
	BorderColor #2FA4E7
	BackgroundColor transparent
	StereotypeFontColor #343A40
	BorderThickness 1
	AttributeFontColor #BABDBF
	AttributeFontSize 11
}


skinparam usecase {
		FontColor #2FA4E7
	BorderColor #2FA4E7
	BackgroundColor transparent
	BorderThickness 2
	StereotypeFontColor #2FA4E7
}


skinparam rectangle {
		FontColor #2FA4E7
	BorderColor #2FA4E7
	BackgroundColor transparent
	BorderThickness 2
	StereotypeFontColor #2FA4E7
}


skinparam package {
	BackgroundColor transparent
  	BorderColor #2FA4E7
	FontColor #2FA4E7
	BorderThickness 2
}


skinparam folder {
	BackgroundColor transparent
  	BorderColor #DD5600
	FontColor #DD5600
	BorderThickness 2
}


skinparam frame {
	BackgroundColor transparent
  	BorderColor #033C73
	FontColor #033C73
	BorderThickness 2
}


skinparam state {
		FontColor #2FA4E7
	BorderColor #2FA4E7
	BackgroundColor transparent
	StartColor #033C73
	EndColor #033C73
	AttributeFontColor #BABDBF
	AttributeFontSize 11
}


skinparam queue {
		FontColor #2FA4E7
	BorderColor #2FA4E7
	BackgroundColor transparent
}


skinparam card {
	BackgroundColor transparent
	BorderColor #033C73
	FontColor #033C73
}


skinparam file {
	BackgroundColor transparent
	BorderColor #868E96
	FontColor #868E96
}


skinparam stack {
		FontColor #2FA4E7
	BorderColor #2FA4E7
	BackgroundColor transparent
}




skinparam backgroundColor white

title "pyTorch BERT model"

class BERT {
    The main class of our model.
    It unites all the sub-models
    ..
}

class JointEmbedding {
    Container for embeddings.
    The first layer in the model
    ..
}

class AttentionHead {
    Attention model
    ..
}

class MultiHeadAttention {
    Container for attention heads
    ..
}

class Encoder {
    Pass embeddings through attention
    and feed-forward neural network
    ..
}

JointEmbedding -* BERT
Encoder -left-* BERT
AttentionHead -left-* MultiHeadAttention
MultiHeadAttention - -* Encoder

@enduml

PlantUML version 1.2021.16(Wed Dec 08 19:25:22 EET 2021)
(GPL source distribution)
Java Runtime: OpenJDK Runtime Environment
JVM: OpenJDK 64-Bit Server VM
Default Encoding: UTF-8
Language: ru
Country: UA
--></g></svg>